<svg xmlns="http://www.w3.org/2000/svg" xmlns:xlink="http://www.w3.org/1999/xlink" width="1920" height="1080" viewBox="0 0 1920 1080">
  <defs>
    <clipPath id="clip-path">
      <rect x="12" y="930" width="1814" height="963" fill="none"/>
    </clipPath>
    <clipPath id="clip-path-2">
      <rect width="297" height="645" fill="none"/>
    </clipPath>
    <clipPath id="clip-Web_1920_1">
      <rect width="1920" height="1080"/>
    </clipPath>
  </defs>
  <g id="Web_1920_1" data-name="Web 1920 – 1" clip-path="url(#clip-Web_1920_1)">
    <rect width="1920" height="1080" fill="#18130c"/>
    <g id="Scroll_Group_1" data-name="Scroll Group 1" transform="translate(41 -930)" clip-path="url(#clip-path)" style="isolation: isolate">
      <g id="page" transform="translate(-41 -50)">
        <text id="Basic_Assembler" data-name="Basic Assembler" transform="translate(53 114)" fill="#ccc" font-size="60" font-family="Bahnschrift" font-weight="700"><tspan x="0" y="0">Basic Assembler</tspan></text>
        <g id="code_text_box" data-name="code text box" transform="translate(509 180)" fill="#201200" stroke="#e48200" stroke-width="1">
          <rect width="1358" height="802" rx="27" stroke="none"/>
          <rect x="0.5" y="0.5" width="1357" height="801" rx="26.5" fill="none"/>
        </g>
        <path id="serial_numbers" data-name="serial numbers" d="M24,0H90a0,0,0,0,1,0,0V798a0,0,0,0,1,0,0H24A24,24,0,0,1,0,774V24A24,24,0,0,1,24,0Z" transform="translate(511 182)" fill="#333"/>
        <g id="instructions" transform="translate(53 180)" fill="#201200" stroke="#e48200" stroke-width="1">
          <rect width="398" height="802" rx="27" stroke="none"/>
          <rect x="0.5" y="0.5" width="397" height="801" rx="26.5" fill="none"/>
        </g>
        <g id="details" transform="translate(53 1022)" fill="#201200" stroke="#e48200" stroke-width="1">
          <rect width="1814" height="796" rx="27" stroke="none"/>
          <rect x="0.5" y="0.5" width="1813" height="795" rx="26.5" fill="none"/>
        </g>
        <g id="run_button" data-name="run button">
          <g id="Rectangle_2" data-name="Rectangle 2" transform="translate(1590 50)" fill="rgba(228,130,0,0.44)" stroke="#e38100" stroke-width="1">
            <rect width="265" height="92" rx="16" stroke="none"/>
            <rect x="0.5" y="0.5" width="264" height="91" rx="15.5" fill="none"/>
          </g>
          <text id="Run" transform="translate(1653 108)" fill="#ccc" font-size="40" font-family="Bahnschrift" font-weight="700"><tspan x="0" y="0">Run</tspan></text>
          <path id="Polygon_1" data-name="Polygon 1" d="M22.537,5.994a4,4,0,0,1,6.927,0L48.533,39a4,4,0,0,1-3.463,6H6.931a4,4,0,0,1-3.463-6Z" transform="translate(1814 70) rotate(90)" fill="#ccc"/>
        </g>
        <g id="serial_numbers-2" data-name="serial numbers" transform="translate(-19)">
          <text id="_1" data-name="1" transform="translate(580 236)" fill="#ccc" font-size="25" font-family="Consolas"><tspan x="0" y="0">1</tspan></text>
          <text id="_5" data-name="5" transform="translate(578 432)" fill="#ccc" font-size="25" font-family="Consolas"><tspan x="0" y="0">5</tspan></text>
          <text id="_8" data-name="8" transform="translate(579 579)" fill="#ccc" font-size="25" font-family="Consolas"><tspan x="0" y="0">8</tspan></text>
          <text id="_3" data-name="3" transform="translate(579 334)" fill="#ccc" font-size="25" font-family="Consolas"><tspan x="0" y="0">3</tspan></text>
          <text id="_6" data-name="6" transform="translate(578 481)" fill="#ccc" font-size="25" font-family="Consolas"><tspan x="0" y="0">6</tspan></text>
          <text id="_10" data-name="10" transform="translate(565 677)" fill="#ccc" font-size="25" font-family="Consolas"><tspan x="0" y="0">10</tspan></text>
          <text id="_13" data-name="13" transform="translate(565 824)" fill="#ccc" font-size="25" font-family="Consolas"><tspan x="0" y="0">13</tspan></text>
          <text id="_2" data-name="2" transform="translate(580 285)" fill="#ccc" font-size="25" font-family="Consolas"><tspan x="0" y="0">2</tspan></text>
          <text id="_9" data-name="9" transform="translate(579 628)" fill="#ccc" font-size="25" font-family="Consolas"><tspan x="0" y="0">9</tspan></text>
          <text id="_4" data-name="4" transform="translate(578 383)" fill="#ccc" font-size="25" font-family="Consolas"><tspan x="0" y="0">4</tspan></text>
          <text id="_7" data-name="7" transform="translate(579 530)" fill="#ccc" font-size="25" font-family="Consolas"><tspan x="0" y="0">7</tspan></text>
          <text id="_11" data-name="11" transform="translate(565 726)" fill="#ccc" font-size="25" font-family="Consolas"><tspan x="0" y="0">11</tspan></text>
          <text id="_14" data-name="14" transform="translate(565 873)" fill="#ccc" font-size="25" font-family="Consolas"><tspan x="0" y="0">14</tspan></text>
          <text id="_12" data-name="12" transform="translate(565 775)" fill="#ccc" font-size="25" font-family="Consolas"><tspan x="0" y="0">12</tspan></text>
          <text id="_15" data-name="15" transform="translate(565 922)" fill="#ccc" font-size="25" font-family="Consolas"><tspan x="0" y="0">15</tspan></text>
        </g>
        <g id="Scroll_Group_2" data-name="Scroll Group 2" transform="translate(78 296)" clip-path="url(#clip-path-2)" style="isolation: isolate">
          <g id="instruction_text" data-name="instruction text" transform="translate(-78 -218)">
            <g id="add_inst" data-name="add inst">
              <text id="add_reg1_reg2_reg3" data-name="add reg1 reg2 reg3" transform="translate(78 250)" fill="#ccc" font-size="30" font-family="Consolas"><tspan x="0" y="0">add reg1 reg2 reg3</tspan></text>
              <text id="Performs_reg1_reg2_reg3" data-name="Performs reg1=reg2+reg3" transform="translate(78 296)" fill="#ccc" font-size="25" font-family="Bahnschrift" font-weight="300"><tspan x="0" y="0">Performs reg1=reg2+reg3</tspan></text>
            </g>
            <g id="sub_inst" data-name="sub inst">
              <text id="sub_reg1_reg2_reg3" data-name="sub reg1 reg2 reg3" transform="translate(78 365)" fill="#ccc" font-size="30" font-family="Consolas"><tspan x="0" y="0">sub reg1 reg2 reg3</tspan></text>
              <text id="Performs_reg1_reg2_reg3-2" data-name="Performs reg1=reg2+reg3" transform="translate(78 412)" fill="#ccc" font-size="25" font-family="Bahnschrift" font-weight="300"><tspan x="0" y="0">Performs reg1=reg2+reg3</tspan></text>
            </g>
            <g id="MOV_INST" data-name="MOV INST" transform="translate(0 9)">
              <text id="mov_reg1_Imm" data-name="mov reg1 $Imm" transform="translate(78 472)" fill="#ccc" font-size="30" font-family="Consolas"><tspan x="0" y="0">mov reg1 $Imm</tspan></text>
              <text id="Performs_reg1_reg2_reg3-3" data-name="Performs reg1=reg2+reg3" transform="translate(78 518)" fill="#ccc" font-size="25" font-family="Bahnschrift" font-weight="300"><tspan x="0" y="0">Performs reg1=reg2+reg3</tspan></text>
            </g>
            <g id="MOV_INST-2" data-name="MOV INST" transform="translate(0 354)">
              <text id="mov_reg1_Imm-2" data-name="mov reg1 $Imm" transform="translate(78 472)" fill="#ccc" font-size="30" font-family="Consolas"><tspan x="0" y="0">mov reg1 $Imm</tspan></text>
              <text id="Performs_reg1_reg2_reg3-4" data-name="Performs reg1=reg2+reg3" transform="translate(78 518)" fill="#ccc" font-size="25" font-family="Bahnschrift" font-weight="300"><tspan x="0" y="0">Performs reg1=reg2+reg3</tspan></text>
            </g>
            <g id="mov_inst-3" data-name="mov inst" transform="translate(0 -139)">
              <text id="mov_reg1_reg2" data-name="mov reg1 reg2" transform="translate(78 735)" fill="#ccc" font-size="30" font-family="Consolas"><tspan x="0" y="0">mov reg1 reg2</tspan></text>
              <text id="Performs_reg1_reg2_reg3-5" data-name="Performs reg1=reg2+reg3" transform="translate(78 781)" fill="#ccc" font-size="25" font-family="Bahnschrift" font-weight="300"><tspan x="0" y="0">Performs reg1=reg2+reg3</tspan></text>
            </g>
            <g id="mov_inst-4" data-name="mov inst" transform="translate(0 206)">
              <text id="mov_reg1_reg2-2" data-name="mov reg1 reg2" transform="translate(78 735)" fill="#ccc" font-size="30" font-family="Consolas"><tspan x="0" y="0">mov reg1 reg2</tspan></text>
              <text id="Performs_reg1_reg2_reg3-6" data-name="Performs reg1=reg2+reg3" transform="translate(78 781)" fill="#ccc" font-size="25" font-family="Bahnschrift" font-weight="300"><tspan x="0" y="0">Performs reg1=reg2+reg3</tspan></text>
            </g>
            <g id="ld_inst" data-name="ld inst">
              <text id="ld_reg1_mem_addr" data-name="ld reg1 mem_addr" transform="translate(78 711)" fill="#ccc" font-size="30" font-family="Consolas"><tspan x="0" y="0">ld reg1 mem_addr</tspan></text>
              <text id="Performs_reg1_reg2_reg3-7" data-name="Performs reg1=reg2+reg3" transform="translate(78 757)" fill="#ccc" font-size="25" font-family="Bahnschrift" font-weight="300"><tspan x="0" y="0">Performs reg1=reg2+reg3</tspan></text>
            </g>
            <g id="ld_inst-2" data-name="ld inst" transform="translate(0 345)">
              <text id="ld_reg1_mem_addr-2" data-name="ld reg1 mem_addr" transform="translate(78 711)" fill="#ccc" font-size="30" font-family="Consolas"><tspan x="0" y="0">ld reg1 mem_addr</tspan></text>
              <text id="Performs_reg1_reg2_reg3-8" data-name="Performs reg1=reg2+reg3" transform="translate(78 757)" fill="#ccc" font-size="25" font-family="Bahnschrift" font-weight="300"><tspan x="0" y="0">Performs reg1=reg2+reg3</tspan></text>
            </g>
          </g>
        </g>
        <text id="Instruction_Set" data-name="Instruction Set" transform="translate(78 254)" fill="#ccc" font-size="50" font-family="Bahnschrift" font-weight="700"><tspan x="0" y="0">Instruction Set</tspan></text>
        <text id="Assembler_output:" data-name="Assembler output:" transform="translate(78 1095)" fill="#ccc" font-size="50" font-family="Bahnschrift" font-weight="700"><tspan x="0" y="0">Assembler output:</tspan></text>
        <text id="Simulator_output:" data-name="Simulator output:" transform="translate(647 1095)" fill="#ccc" font-size="50" font-family="Bahnschrift" font-weight="700"><tspan x="0" y="0">Simulator output:</tspan></text>
        <text id="Register_dump:" data-name="Register dump:" transform="translate(1413 1095)" fill="#ccc" font-size="50" font-family="Bahnschrift" font-weight="700"><tspan x="0" y="0">Register dump:</tspan></text>
        <text id="add_r1_r2_r3" data-name="add r1 r2 r3" transform="translate(634 237)" fill="#ccc" font-size="30" font-family="Consolas"><tspan x="0" y="0">add r1 r2 r3</tspan></text>
        <text id="add_r2_r3_r4" data-name="add r2 r3 r4" transform="translate(634 286)" fill="#ccc" font-size="30" font-family="Consolas"><tspan x="0" y="0">add r2 r3 r4</tspan></text>
        <text id="hlt" transform="translate(634 336)" fill="#ccc" font-size="30" font-family="Consolas"><tspan x="0" y="0">hlt</tspan></text>
        <text id="r1_:_0001000000_r2_:_1100101010_r3_:_0101010101_r4_:_0001000000_r5_:_1100101010_r6_:_0101010101_r7_:_0001000000_r8_:_1100101010_r9_:_0101010101_r10_:_0001000000_r11_:_1100101010_r12_:_0101010101" data-name="r1  : 0001000000
r2  : 1100101010
r3  : 0101010101
r4  : 0001000000
r5  : 1100101010
r6  : 0101010101
r7  : 0001000000
r8  : 1100101010
r9  : 0101010101
r10 : 0001000000
r11 : 1100101010
r12 : 0101010101" transform="translate(1413 1166)" fill="#ccc" font-size="30" font-family="Consolas"><tspan x="0" y="0" xml:space="preserve">r1  : 0001000000</tspan><tspan x="0" y="36" xml:space="preserve">r2  : 1100101010</tspan><tspan x="0" y="72" xml:space="preserve">r3  : 0101010101</tspan><tspan x="0" y="108" xml:space="preserve">r4  : 0001000000</tspan><tspan x="0" y="144" xml:space="preserve">r5  : 1100101010</tspan><tspan x="0" y="180" xml:space="preserve">r6  : 0101010101</tspan><tspan x="0" y="216" xml:space="preserve">r7  : 0001000000</tspan><tspan x="0" y="252" xml:space="preserve">r8  : 1100101010</tspan><tspan x="0" y="288" xml:space="preserve">r9  : 0101010101</tspan><tspan x="0" y="324">r10 : 0001000000</tspan><tspan x="0" y="360">r11 : 1100101010</tspan><tspan x="0" y="396">r12 : 0101010101</tspan></text>
        <text id="_0001000000_1100101010_1010101001_" data-name="0001000000
1100101010
1010101001
" transform="translate(78 1166)" fill="#ccc" font-size="30" font-family="Consolas"><tspan x="0" y="0">0001000000</tspan><tspan x="0" y="36">1100101010</tspan><tspan x="0" y="72">1010101001</tspan><tspan x="0" y="108"></tspan></text>
        <rect id="Rectangle_8" data-name="Rectangle 8" width="658" height="619" rx="42" transform="translate(647 1138)" fill="#707070"/>
      </g>
    </g>
  </g>
</svg>
